<?xml version="1.0" encoding="UTF-8"?>
<svg id="Layer_1" xmlns="http://www.w3.org/2000/svg" version="1.1" viewBox="0 0 561.6 196">
  <!-- Generator: Adobe Illustrator 29.2.1, SVG Export Plug-In . SVG Version: 2.1.0 Build 116)  -->
  <defs>
    <style>
      .st0 {
        fill: #fff;
      }

      .st1 {
        fill: #e13515;
      }
    </style>
  </defs>
  <path class="st0" d="M84,14.2h-36.5c-10.6,0-19.1,8.6-19.1,19.1v105.7h23.6v-18.6c0-2.1,1.7-3.8,3.8-3.8h31.7c32.3-.6,52.4-20.1,52.4-50.9s-4.5-26.8-12.9-35.7c-9.8-10.4-24.7-15.9-42.9-15.9ZM116.1,65.7c0,18.2-11.2,28.6-30.7,28.6s-33.4-11.2-33.4-28.6v-28.9h32c14.6,0,32,5,32,28.9h0Z"/>
  <path class="st0" d="M201.6,50.8c-2.6-2.2-6-3.2-9.3-2.6-23.3,3.7-37.8,21.5-37.8,46.6v44.3h23.6v-46.3c0-11.8,6.5-19.7,17.9-21.7,5.5-1,9.5-5.8,9.5-11.4s-1.5-6.6-4.1-8.8h0Z"/>
  <path class="st0" d="M312.5,47.3v-.2h-38.7c-6.5,0-11.8,5.3-11.8,11.8v80.1h23.6v-48.2c.2-12.6,9-21.1,22-21.1s.4,0,.6,0h.2c13.1.3,21.5,8.8,21.5,21.5v43.7c0,2.2,1.8,4.1,4.1,4.1h15.6c2.2,0,4.1-1.8,4.1-4.1v-42.4c0-11.3-3.3-21.5-9.4-29.3-7.4-9.4-18.6-15-31.8-16h0Z"/>
  <path class="st0" d="M411.9,71.7c6.1,0,11-4.9,11-11s-4.9-11-11-11h-19.8v-18.1h-23.6v58.2c0,15.6,3.2,27,9.8,34.9,6.9,8.2,17.4,12.8,32.1,14,.3,0,.6,0,.9,0,2.9,0,5.7-1.1,7.9-3.1,2.4-2.2,3.7-5.2,3.7-8.4,0-5.9-4.6-10.9-10.5-11.4-15.4-1.3-20.3-7.1-20.3-23.7v-20.4h19.8Z"/>
  <path class="st0" d="M517.5,48.7h0c-6.5,0-11.9,5.3-11.9,11.9v33.4c0,15-8.8,24-23.5,24s-20.9-5-20.9-19v-38.4c0-6.5-5.3-11.8-11.8-11.8s-11.8,5.3-11.8,11.8v37.1c0,11,1.9,19.7,5.8,26.4,6.5,11.2,18.2,16.7,35.8,16.7h26.4c-.5,13.5-7.6,19.5-23.1,19.5s-19.1-5.9-20.2-11c-1.2-5.3-6-9.1-11.5-9.1s-7,1.6-9.3,4.4c-2.2,2.8-3.1,6.3-2.3,9.8,2.7,12.6,12.4,27.6,43.1,27.6s21.9-2.5,29.5-7.4c11.5-7.3,17.6-20.1,17.6-36.8V60.6c0-6.5-5.3-11.9-11.9-11.9h0Z"/>
  <path class="st1" d="M233.8,48.7h0c-6.5,0-11.8,5.3-11.8,11.8v78.5h23.6V60.6c0-6.5-5.3-11.8-11.8-11.8Z"/>
  <path class="st1" d="M233.8,14.2c-7.9,0-13.4,5.4-13.4,13.1s5.5,13,13.4,13,13.6-5.4,13.6-13-5.6-13.1-13.6-13.1Z"/>
</svg>