<?xml version="1.0" encoding="UTF-8"?>
<svg id="Layer_1" data-name="Layer 1" xmlns="http://www.w3.org/2000/svg" viewBox="0 0 561.58 196.02">
  <defs>
    <style>
      .cls-1 {
        fill: #fff;
      }

      .cls-2 {
        fill: #e13515;
      }

      .cls-3 {
        fill: #101828;
      }
    </style>
  </defs>
  <rect class="cls-2" x="0" width="561.58" height="196.02"/>
  <path class="cls-1" d="M84.04,14.17h-36.54c-10.56,0-19.15,8.59-19.15,19.15v105.73h23.64v-18.59c0-2.11,1.71-3.82,3.82-3.82h31.7c32.31-.58,52.38-20.09,52.38-50.9,0-14.43-4.47-26.76-12.91-35.67-9.85-10.4-24.7-15.9-42.94-15.9ZM116.08,65.74c0,18.18-11.2,28.6-30.73,28.6s-33.37-11.23-33.37-28.6v-28.92h32.05c14.62,0,32.04,5.02,32.04,28.92Z"/>
  <path class="cls-1" d="M201.62,50.77c-2.58-2.2-5.97-3.16-9.3-2.63-23.29,3.68-37.75,21.53-37.75,46.58v44.33h23.64v-46.31c0-11.83,6.54-19.74,17.95-21.72,5.53-.96,9.54-5.75,9.54-11.41,0-3.41-1.49-6.63-4.08-8.84Z"/>
  <path class="cls-1" d="M312.51,47.25v-.16h-38.71c-6.52,0-11.82,5.3-11.82,11.82v32.48c0,.39,0,.8,0,1.2v46.47h23.64v-48.2c.19-12.63,9.03-21.11,22.01-21.11.2,0,.41,0,.61.01h.18c13.09.32,21.55,8.76,21.55,21.51v43.71c0,2.25,1.83,4.08,4.08,4.08h15.64c2.25,0,4.08-1.83,4.08-4.08v-42.4c0-11.33-3.26-21.47-9.42-29.32-7.41-9.43-18.61-15.04-31.83-16.02Z"/>
  <path class="cls-1" d="M411.87,71.72c6.06,0,11-4.93,11-11s-4.93-11-11-11h-19.79v-18.11h-23.64v58.16c0,15.56,3.22,26.98,9.83,34.92,6.86,8.23,17.36,12.82,32.1,14.02.31.03.63.04.94.04,2.9,0,5.72-1.09,7.85-3.06,2.35-2.17,3.7-5.24,3.7-8.43,0-5.92-4.61-10.95-10.49-11.45-15.37-1.29-20.3-7.06-20.3-23.74v-20.36h19.79Z"/>
  <path class="cls-1" d="M517.46,48.74h-.05c-6.55,0-11.88,5.33-11.88,11.88v33.44c0,15.02-8.78,23.98-23.48,23.98s-20.86-4.98-20.86-19.04v-38.43c0-6.52-5.3-11.82-11.82-11.82s-11.82,5.3-11.82,11.82v37.11c0,11.03,1.89,19.66,5.78,26.37,6.46,11.21,18.16,16.65,35.76,16.65h26.43c-.45,13.47-7.64,19.49-23.13,19.49s-19.08-5.86-20.2-10.96c-1.16-5.29-6-9.12-11.52-9.12-3.61,0-6.99,1.61-9.26,4.43-2.23,2.76-3.08,6.32-2.34,9.77,2.71,12.57,12.4,27.55,43.14,27.55,11.92,0,21.85-2.48,29.49-7.37,11.54-7.34,17.64-20.07,17.64-36.79V60.62c0-6.55-5.33-11.88-11.88-11.88Z"/>
  <path class="cls-3" d="M233.84,48.74h0c-6.52,0-11.82,5.3-11.82,11.82v78.49h23.64V60.56c0-6.52-5.3-11.82-11.82-11.82Z"/>
  <path class="cls-3" d="M233.76,14.17c-7.88,0-13.38,5.37-13.38,13.05s5.5,13.05,13.38,13.05,13.55-5.37,13.55-13.05-5.57-13.05-13.55-13.05Z"/>
</svg>