<?xml version="1.0" encoding="UTF-8"?>
<svg id="Layer_1" data-name="Layer 1" xmlns="http://www.w3.org/2000/svg" viewBox="0 0 340.16 340.16">
  <defs>
    <style>
      .cls-1 {
        fill: #fff;
      }

      .cls-2 {
        fill: #e13515;
      }
    </style>
  </defs>
  <rect class="cls-2" x="-31.04" y="-22.27" width="398.49" height="388.48"/>
  <path class="cls-1" d="M278.93,76.97c-19.94-21.05-49.79-32.17-86.33-32.17h-84.75c-15.16,0-27.49,12.33-27.49,27.49v223.06h54.98v-40.57c0-1.5,1.22-2.72,2.72-2.72h61.32c65.24-1.18,105.77-40.64,105.77-102.99,0-29.08-9.07-54.01-26.22-72.11ZM249.84,149.08c0,32.62-19.43,50.59-54.7,50.59s-59.8-19.86-59.8-50.59v-51.21h57.26c37.98,0,57.24,17.23,57.24,51.21Z"/>
</svg>